<svg width="29" height="21" viewBox="0 0 29 21" fill="none" xmlns="http://www.w3.org/2000/svg">
<path d="M14.5 0.875C22.75 0.875 28.25 8.575 28.25 10.5C28.25 12.425 22.75 20.125 14.5 20.125C6.25 20.125 0.75 12.425 0.75 10.5C0.75 8.575 6.25 0.875 14.5 0.875ZM14.5 3.625C10.703 3.625 7.625 6.70304 7.625 10.5C7.625 14.297 10.703 17.375 14.5 17.375C18.297 17.375 21.375 14.297 21.375 10.5C21.375 6.70304 18.297 3.625 14.5 3.625ZM14.5013 7.0625C16.3998 7.0625 17.9388 8.60152 17.9388 10.5C17.9388 12.3985 16.3998 13.9375 14.5013 13.9375C12.6028 13.9375 11.0638 12.3985 11.0638 10.5C11.0638 8.60152 12.6028 7.0625 14.5013 7.0625Z" fill="#C1D9E2"/>
</svg>
