<svg width="29" height="30" viewBox="0 0 29 30" fill="none" xmlns="http://www.w3.org/2000/svg">
<path fill-rule="evenodd" clip-rule="evenodd" d="M17.4318 0.59961H11.5463C9.88055 0.599598 8.55041 0.599589 7.47611 0.689926C6.37426 0.782579 5.42655 0.97695 4.55612 1.43341C3.15752 2.16684 2.02043 3.33714 1.30781 4.77658C0.864299 5.67244 0.675442 6.64782 0.585419 7.78185C0.497645 8.88751 0.497654 10.2565 0.497665 11.9709V18.0283C0.497654 19.7427 0.497645 21.1117 0.585419 22.2174C0.675442 23.3514 0.864299 24.3268 1.30781 25.2226C2.02043 26.6621 3.15752 27.8324 4.55612 28.5658C5.42655 29.0223 6.37426 29.2166 7.47611 29.3093C8.5504 29.3996 9.88053 29.3996 11.5463 29.3996H17.4319C19.0976 29.3996 20.4277 29.3996 21.502 29.3093C22.6039 29.2166 23.5516 29.0223 24.422 28.5658C25.8206 27.8324 26.9577 26.6621 27.6703 25.2226C28.1138 24.3268 28.3027 23.3514 28.3927 22.2174C28.4805 21.1117 28.4805 19.7427 28.4805 18.0283V11.9709C28.4805 10.2565 28.4805 8.88752 28.3927 7.78185C28.3027 6.64782 28.1138 5.67244 27.6703 4.77658C26.9577 3.33714 25.8206 2.16684 24.422 1.43341C23.5516 0.97695 22.6039 0.782579 21.502 0.689926C20.4277 0.599589 19.0976 0.599598 17.4318 0.59961ZM21.2884 3.38096C22.228 3.45997 22.7921 3.60893 23.231 3.83913C24.136 4.3137 24.8718 5.07095 25.3329 6.00236C25.5565 6.45415 25.7013 7.03466 25.778 8.00172C25.8561 8.98453 25.8571 10.2432 25.8571 12.0296V17.9696C25.8571 19.756 25.8561 21.0147 25.778 21.9975C25.7013 22.9646 25.5565 23.5451 25.3329 23.9969C24.8718 24.9283 24.136 25.6855 23.231 26.1601C22.7921 26.3903 22.228 26.5392 21.2884 26.6183C20.3335 26.6986 19.1105 26.6996 17.3748 26.6996H11.6033C9.86759 26.6996 8.64466 26.6986 7.68974 26.6183C6.75012 26.5392 6.18608 26.3903 5.74711 26.1601C4.84214 25.6855 4.10637 24.9283 3.64526 23.9969C3.4216 23.5451 3.27686 22.9646 3.20009 21.9975C3.12207 21.0147 3.12105 19.756 3.12105 17.9696V12.0296C3.12105 10.2432 3.12207 8.98453 3.20009 8.00172C3.27686 7.03466 3.4216 6.45415 3.64526 6.00236C4.10637 5.07095 4.84214 4.3137 5.74711 3.83913C6.18608 3.60893 6.75012 3.45997 7.68974 3.38096C8.64466 3.30066 9.86759 3.29961 11.6033 3.29961H17.3748C19.1105 3.29961 20.3335 3.30066 21.2884 3.38096ZM14.1049 9.54501C13.5926 9.01781 12.7621 9.01781 12.2499 9.54502L7.87755 14.0451C7.63156 14.2982 7.49336 14.6416 7.49337 14.9997C7.49337 15.3577 7.63157 15.7011 7.87756 15.9543L12.2499 20.4542C12.7621 20.9814 13.5926 20.9814 14.1049 20.4542C14.6171 19.927 14.6171 19.0722 14.1049 18.545L11.9718 16.3497L20.1731 16.3497C20.8975 16.3497 21.4848 15.7452 21.4848 14.9997C21.4848 14.2541 20.8975 13.6497 20.1731 13.6497L11.9717 13.6497L14.1049 11.4542C14.6171 10.927 14.6171 10.0722 14.1049 9.54501Z" fill="#99A2AD"/>
</svg>
