<svg width="31" height="31" viewBox="0 0 31 31" fill="none" xmlns="http://www.w3.org/2000/svg">
<path fill-rule="evenodd" clip-rule="evenodd" d="M11.909 26.749C12.3774 27.5894 12.8467 28.301 13.2678 28.8797C8.82631 28.1442 5.11348 25.2507 3.24266 21.3125H9.75499C10.3055 23.4891 11.1064 25.309 11.909 26.749ZM11.7595 21.3125C12.2556 23.0971 12.9292 24.5998 13.6014 25.8057C14.2561 26.9802 14.9087 27.8719 15.3928 28.4652C15.4296 28.5102 15.4653 28.5535 15.5 28.595C15.5347 28.5535 15.5704 28.5102 15.6072 28.4652C16.0913 27.8719 16.7439 26.9802 17.3986 25.8057C18.0708 24.5998 18.7444 23.0971 19.2405 21.3125H11.7595ZM19.6817 19.375H11.3183C11.1053 18.1829 10.9792 16.8902 10.9792 15.5C10.9792 14.1098 11.1053 12.8171 11.3183 11.625H19.6817C19.8947 12.8171 20.0208 14.1098 20.0208 15.5C20.0208 16.8902 19.8947 18.1829 19.6817 19.375ZM21.245 21.3125C20.6945 23.4891 19.8936 25.309 19.091 26.749C18.6226 27.5894 18.1533 28.301 17.7322 28.8797C22.1737 28.1442 25.8865 25.2507 27.7573 21.3125H21.245ZM28.5009 19.375H21.6473C21.8439 18.172 21.9583 16.8794 21.9583 15.5C21.9583 14.1206 21.8439 12.828 21.6473 11.625H28.5009C28.8663 12.8528 29.0625 14.1535 29.0625 15.5C29.0625 16.8465 28.8663 18.1472 28.5009 19.375ZM9.35268 19.375H2.49914C2.13373 18.1472 1.9375 16.8465 1.9375 15.5C1.9375 14.1535 2.13373 12.8528 2.49914 11.625H9.35268C9.15608 12.828 9.04167 14.1206 9.04167 15.5C9.04167 16.8794 9.15608 18.172 9.35268 19.375ZM9.75499 9.6875H3.24266C5.11348 5.74934 8.82631 2.85581 13.2678 2.12032C12.8467 2.69901 12.3774 3.4106 11.909 4.25101C11.1064 5.691 10.3055 7.51087 9.75499 9.6875ZM13.6014 5.1943C12.9292 6.40023 12.2556 7.90292 11.7595 9.6875H19.2405C18.7444 7.90292 18.0708 6.40023 17.3986 5.1943C16.7439 4.01977 16.0913 3.12809 15.6072 2.53483C15.5704 2.48982 15.5347 2.44654 15.5 2.40499C15.4653 2.44654 15.4296 2.48982 15.3928 2.53483C14.9087 3.12809 14.2561 4.01977 13.6014 5.1943ZM21.245 9.6875H27.7573C25.8865 5.74934 22.1737 2.85581 17.7322 2.12032C18.1533 2.69901 18.6226 3.4106 19.091 4.25101C19.8936 5.691 20.6945 7.51087 21.245 9.6875ZM15.5 31C24.0604 31 31 24.0604 31 15.5C31 6.93959 24.0604 0 15.5 0C6.93959 0 0 6.93959 0 15.5C0 24.0604 6.93959 31 15.5 31Z" fill="#99A2AD"/>
</svg>
