<svg width="19" height="19" viewBox="0 0 19 19" fill="none" xmlns="http://www.w3.org/2000/svg">
<path fill-rule="evenodd" clip-rule="evenodd" d="M8.39961 2.39961C5.0859 2.39961 2.39961 5.0859 2.39961 8.39961C2.39961 11.7133 5.0859 14.3996 8.39961 14.3996C11.7133 14.3996 14.3996 11.7133 14.3996 8.39961C14.3996 5.0859 11.7133 2.39961 8.39961 2.39961ZM0.599609 8.39961C0.599609 4.09179 4.09179 0.599609 8.39961 0.599609C12.7074 0.599609 16.1996 4.09179 16.1996 8.39961C16.1996 10.2292 15.5697 11.9117 14.5148 13.242L18.336 17.0632C18.6875 17.4147 18.6875 17.9845 18.336 18.336C17.9845 18.6875 17.4147 18.6875 17.0632 18.336L13.242 14.5148C11.9117 15.5697 10.2292 16.1996 8.39961 16.1996C4.09179 16.1996 0.599609 12.7074 0.599609 8.39961Z" fill="#878787"/>
</svg>
