<svg width="29" height="30" viewBox="0 0 29 30" fill="none" xmlns="http://www.w3.org/2000/svg">
<path fill-rule="evenodd" clip-rule="evenodd" d="M11.1697 0.59961H17.0553C18.721 0.599598 20.0512 0.599589 21.1255 0.689926C22.2273 0.782579 23.175 0.97695 24.0454 1.43341C25.444 2.16684 26.5811 3.33714 27.2938 4.77658C27.7373 5.67244 27.9261 6.64782 28.0161 7.78185C28.1039 8.88751 28.1039 10.2565 28.1039 11.9709V18.0283C28.1039 19.7427 28.1039 21.1117 28.0161 22.2174C27.9261 23.3514 27.7373 24.3268 27.2938 25.2226C26.5811 26.6621 25.444 27.8324 24.0454 28.5658C23.175 29.0223 22.2273 29.2166 21.1255 29.3093C20.0512 29.3996 18.721 29.3996 17.0553 29.3996H11.1697C9.50396 29.3996 8.17383 29.3996 7.09954 29.3093C5.99769 29.2166 5.04998 29.0223 4.17955 28.5658C2.78095 27.8324 1.64386 26.6621 0.931235 25.2226C0.487727 24.3268 0.298872 23.3514 0.208847 22.2174C0.121074 21.1117 0.121083 19.7427 0.121094 18.0283V11.9709C0.121083 10.2565 0.121074 8.88752 0.208847 7.78185C0.298872 6.64782 0.487727 5.67244 0.931235 4.77658C1.64386 3.33714 2.78095 2.16684 4.17955 1.43341C5.04998 0.97695 5.99769 0.782579 7.09954 0.689926C8.17384 0.599589 9.50398 0.599598 11.1697 0.59961ZM7.31317 3.38096C6.37355 3.45997 5.80951 3.60893 5.37054 3.83913C4.46556 4.3137 3.7298 5.07095 3.26869 6.00236C3.04502 6.45415 2.90029 7.03466 2.82352 8.00172C2.7455 8.98453 2.74448 10.2432 2.74448 12.0296V17.9696C2.74448 19.756 2.7455 21.0147 2.82352 21.9975C2.90029 22.9646 3.04502 23.5451 3.26869 23.9969C3.7298 24.9283 4.46557 25.6855 5.37054 26.1601C5.80951 26.3903 6.37355 26.5392 7.31317 26.6183C8.26809 26.6986 9.49102 26.6996 11.2268 26.6996H16.9982C18.734 26.6996 19.9569 26.6986 20.9118 26.6183C21.8514 26.5392 22.4155 26.3903 22.8545 26.1601C23.7594 25.6855 24.4952 24.9283 24.9563 23.9969C25.18 23.5451 25.3247 22.9646 25.4015 21.9975C25.4795 21.0147 25.4805 19.756 25.4805 17.9696V12.0296C25.4805 10.2432 25.4795 8.98453 25.4015 8.00172C25.3247 7.03466 25.18 6.45415 24.9563 6.00236C24.4952 5.07095 23.7594 4.3137 22.8545 3.83913C22.4155 3.60893 21.8514 3.45997 20.9118 3.38096C19.9569 3.30066 18.734 3.29961 16.9982 3.29961H11.2268C9.49102 3.29961 8.26809 3.30066 7.31317 3.38096ZM14.4967 9.54501C15.0089 9.01781 15.8395 9.01781 16.3517 9.54502L20.724 14.0451C20.97 14.2982 21.1082 14.6416 21.1082 14.9997C21.1082 15.3577 20.97 15.7011 20.724 15.9543L16.3517 20.4542C15.8394 20.9814 15.0089 20.9814 14.4967 20.4542C13.9844 19.927 13.9844 19.0722 14.4967 18.545L16.6298 16.3497L8.42849 16.3497C7.70406 16.3497 7.1168 15.7452 7.1168 14.9997C7.1168 14.2541 7.70406 13.6497 8.42849 13.6497L16.6298 13.6497L14.4967 11.4542C13.9844 10.927 13.9844 10.0722 14.4967 9.54501Z" fill="#99A2AD"/>
</svg>
