<svg width="32" height="32" viewBox="0 0 32 32" fill="none" xmlns="http://www.w3.org/2000/svg">
<path fill-rule="evenodd" clip-rule="evenodd" d="M16 32C24.8366 32 32 24.8366 32 16C32 7.16344 24.8366 0 16 0C7.16344 0 0 7.16344 0 16C0 24.8366 7.16344 32 16 32ZM16.3284 22.8492C15.8801 22.2542 15.2462 21.4129 14.8357 20.4049C14.6803 20.0234 14.4037 19.7408 14.1546 19.4863C13.7385 19.0613 13.3993 18.7147 13.8296 18.1171L16.7692 14.0349C16.7891 14.0069 16.7912 13.9712 16.7745 13.9444C16.7517 13.9077 16.7017 13.8992 16.6627 13.9254L12.5137 16.7486C11.5435 17.4087 10.3395 17.544 9.33502 17.1059C7.8922 16.4766 6.90923 16.0024 6.38611 15.6833C6.27643 15.6164 6.17235 15.5534 6.07415 15.4941C4.72082 14.6756 4.48398 14.5323 6.1007 14.0351C7.28602 13.6706 11.8545 12.221 15.314 11.1233C16.9155 10.6152 18.2793 10.1824 18.9598 9.96767C20.3879 9.51693 21.0701 9.28213 21.2791 9.50038C21.4832 9.71361 21.2356 10.3593 20.7905 11.6585C20.4419 12.676 20.0059 15.2871 19.5756 17.8631C19.153 20.3933 18.7361 22.8896 18.4133 23.8089C17.8473 25.4209 17.7407 25.2271 17.1029 24.0674C17.0067 23.8924 16.8984 23.6954 16.7745 23.4794C16.6834 23.3202 16.5234 23.108 16.3284 22.8492Z" fill="#99A2AD"/>
</svg>
