<svg width="33" height="33" viewBox="0 0 33 33" fill="none" xmlns="http://www.w3.org/2000/svg">
<path fill-rule="evenodd" clip-rule="evenodd" d="M2.64199 2.64199C0.374997 4.90899 0.375 8.55766 0.375 15.855V17.145C0.375 24.4423 0.374997 28.091 2.64199 30.358C4.90898 32.625 8.55766 32.625 15.855 32.625H17.145C24.4423 32.625 28.091 32.625 30.358 30.358C32.625 28.091 32.625 24.4423 32.625 17.145V15.855C32.625 8.55766 32.625 4.90899 30.358 2.64199C28.091 0.375 24.4423 0.375 17.145 0.375H15.855C8.55766 0.375 4.90898 0.375 2.64199 2.64199ZM5.75 10.2292C5.92265 18.6182 10.3291 23.6667 17.5919 23.6667H18.0133V18.8674C20.6584 19.1359 22.631 21.1134 23.4363 23.6667H27.25C26.2154 19.8471 23.5329 17.7353 21.8657 16.9286C23.5316 15.9307 25.8894 13.5117 26.4447 10.2292H22.975C22.247 12.8986 20.0812 15.3176 18.012 15.5474V10.2292H14.4868V19.5399C12.3416 19.0029 9.54313 16.3916 9.42846 10.2292H5.75Z" fill="#99A2AD"/>
</svg>
